<svg id="cart" viewBox="0 0 30 30" fill="none" xmlns="http://www.w3.org/2000/svg"><path d="M15 .6a5.99 5.99 0 00-6 6v1.2H4.256l-.056.525-2.4 21-.075.675h26.55l-.075-.675-2.4-21-.056-.525H21V6.6c0-3.321-2.679-6-6-6zm0 1.2c2.679 0 4.8 2.121 4.8 4.8v1.2h-9.6V6.6c0-2.679 2.121-4.8 4.8-4.8zM5.344 9H9v1.369a1.19 1.19 0 00-.6 1.031 1.2 1.2 0 102.4 0c0-.443-.241-.823-.6-1.031V9h9.6v1.369a1.19 1.19 0 00-.6 1.031 1.2 1.2 0 102.4 0c0-.443-.241-.823-.6-1.031V9h3.656l2.27 19.8H3.075L5.343 9z" fill="#000"/></svg>