<svg id="viber" width="30" height="30" fill="none" xmlns="http://www.w3.org/2000/svg"><path d="M15 1.2C7.386 1.2 1.2 7.386 1.2 15c0 2.448.671 4.732 1.79 6.725l-1.768 6.313a.6.6 0 00.722.744l6.583-1.63C10.46 28.183 12.656 28.8 15 28.8c7.614 0 13.8-6.186 13.8-13.8 0-7.614-6.186-13.8-13.8-13.8zm0 1.2c6.966 0 12.6 5.634 12.6 12.6 0 6.966-5.634 12.6-12.6 12.6-2.233 0-4.325-.582-6.143-1.6a.6.6 0 00-.437-.058L2.655 27.37l1.546-5.515a.6.6 0 00-.06-.467A12.528 12.528 0 012.4 15C2.4 8.034 8.034 2.4 15 2.4zM9.986 7.8c-.385 0-.934.143-1.386.63-.27.291-1.4 1.392-1.4 3.326 0 2.017 1.399 3.758 1.568 3.981h.001v.001a19.007 19.007 0 001.802 2.21c1.082 1.14 2.604 2.456 4.492 3.262.87.37 1.556.594 2.076.757.963.302 1.84.256 2.5.16.492-.073 1.035-.31 1.572-.65.537-.34 1.063-.762 1.295-1.404.166-.46.25-.885.281-1.235a2.9 2.9 0 00.006-.472c-.011-.143 0-.253-.133-.471-.279-.46-.595-.471-.925-.634-.184-.091-.706-.346-1.23-.596-.523-.249-.976-.47-1.255-.57-.176-.063-.391-.154-.702-.119-.31.035-.617.26-.795.524-.17.25-.85 1.055-1.058 1.291l-.067-.034c-.257-.127-.571-.235-1.036-.48a8.576 8.576 0 01-1.683-1.168v-.002c-.947-.833-1.61-1.88-1.82-2.232.014-.017-.002.004.028-.026h.001c.214-.212.404-.463.564-.648.227-.261.327-.492.436-.708.216-.43.096-.902-.03-1.15v-.002c.01.018-.067-.15-.15-.345l-.3-.718c-.224-.538-.475-1.143-.624-1.497V8.78c-.176-.417-.413-.718-.724-.863-.311-.145-.586-.104-.597-.104-.223-.01-.466-.013-.707-.013zm0 1.2c.23 0 .459.003.65.012.196.01.184.01.146-.007-.038-.018.014-.024.126.241.146.347.398.954.623 1.494.113.27.218.524.303.723.084.2.13.31.182.416v.002h.002c.051.103.047.037.029.073-.127.252-.144.313-.272.46-.195.226-.394.476-.5.58-.091.09-.258.231-.361.507-.104.277-.056.656.111.939.222.377.954 1.568 2.09 2.569a9.81 9.81 0 001.917 1.33c.533.28.966.445 1.064.493.23.114.482.203.775.168.294-.036.546-.213.707-.395l.001-.002c.214-.242.85-.969 1.156-1.416.013.004.008 0 .11.037v.001h.001c.046.017.627.277 1.144.523.517.246 1.042.503 1.213.587.246.122.362.201.392.202.002.053.004.11-.003.197a3.816 3.816 0 01-.215.931c-.063.175-.392.536-.807.798-.415.263-.92.448-1.108.476-.562.083-1.23.113-1.964-.117a20.066 20.066 0 01-1.964-.716c-1.665-.71-3.08-1.92-4.092-2.984a17.843 17.843 0 01-1.199-1.402c-.287-.375-.413-.57-.518-.707v-.001c-.187-.246-1.325-1.83-1.325-3.256 0-1.51.701-2.101 1.08-2.51A.711.711 0 019.985 9z" fill="#000"/></svg>