<svg id="sum" viewBox="0 0 12 12" xmlns="http://www.w3.org/2000/svg"><path d="M2.4.24c-.569 0-1.028.398-1.328.922C.772 1.687.6 2.37.6 3.12s.173 1.433.472 1.957c.3.525.76.923 1.328.923.568 0 1.028-.398 1.327-.923.3-.524.473-1.206.473-1.957 0-.751-.173-1.433-.473-1.958C3.427.638 2.967.24 2.4.24zm6.806.034L1.927 11.726h.833L10.027.274h-.821zM2.4.96c.227 0 .488.163.708.551.221.388.372.97.372 1.609 0 .64-.15 1.22-.372 1.609-.22.388-.48.551-.708.551-.228 0-.488-.163-.71-.551-.22-.388-.37-.97-.37-1.609 0-.64.15-1.22.37-1.609.222-.388.482-.551.71-.551zM9.6 6c-.569 0-1.028.398-1.328.922-.3.525-.472 1.207-.472 1.958 0 .75.173 1.433.472 1.957.3.525.76.923 1.328.923.568 0 1.028-.398 1.327-.922.3-.525.473-1.207.473-1.958 0-.751-.173-1.433-.473-1.958-.3-.524-.76-.922-1.327-.922zm0 .72c.227 0 .488.163.708.551.221.388.372.97.372 1.609 0 .64-.15 1.22-.372 1.609-.22.388-.48.551-.708.551-.228 0-.488-.163-.71-.551-.22-.388-.37-.97-.37-1.609 0-.64.15-1.22.37-1.609.222-.388.482-.551.71-.551z"/></svg>